<?xml version="1.0" encoding="UTF-8" standalone="no"?>
<!DOCTYPE svg PUBLIC "-//W3C//DTD SVG 1.1//EN"
 "http://www.w3.org/Graphics/SVG/1.1/DTD/svg11.dtd">
<!-- Generated by graphviz version 2.47.3 (20210619.1520)
 -->
<!-- Title: dependencies Pages: 1 -->
<svg width="2875pt" height="247pt"
 viewBox="0.00 0.00 2875.00 246.80" xmlns="http://www.w3.org/2000/svg" xmlns:xlink="http://www.w3.org/1999/xlink">
<g id="graph0" class="graph" transform="scale(1 1) rotate(0) translate(4 242.8)">
<title>dependencies</title>
<polygon fill="white" stroke="transparent" points="-4,4 -4,-242.8 2871,-242.8 2871,4 -4,4"/>
<text text-anchor="middle" x="1433.5" y="-8.2" font-family="sans-serif" font-size="14.00">dependencies</text>
<g id="clust1" class="cluster">
<title>cluster_AppModule</title>
<polygon fill="none" stroke="black" stroke-dasharray="1,5" points="8,-32.8 8,-230.8 2859,-230.8 2859,-32.8 8,-32.8"/>
</g>
<g id="clust2" class="cluster">
<title>cluster_AppModule_declarations</title>
<polygon fill="none" stroke="black" points="446,-40.8 446,-92.8 2851,-92.8 2851,-40.8 446,-40.8"/>
</g>
<g id="clust18" class="cluster">
<title>cluster_AppModule_imports</title>
<polygon fill="none" stroke="black" points="294,-40.8 294,-92.8 438,-92.8 438,-40.8 294,-40.8"/>
</g>
<g id="clust20" class="cluster">
<title>cluster_AppModule_bootstrap</title>
<polygon fill="none" stroke="black" points="1353,-170.8 1353,-222.8 1477,-222.8 1477,-170.8 1353,-170.8"/>
</g>
<g id="clust21" class="cluster">
<title>cluster_AppModule_providers</title>
<polygon fill="none" stroke="black" points="16,-40.8 16,-92.8 286,-92.8 286,-40.8 16,-40.8"/>
</g>
<!-- AppComponent -->
<g id="node1" class="node">
<title>AppComponent</title>
<polygon fill="#ffffb3" stroke="black" points="2842.94,-84.8 2737.06,-84.8 2737.06,-48.8 2842.94,-48.8 2842.94,-84.8"/>
<text text-anchor="middle" x="2790" y="-62.6" font-family="Times,serif" font-size="14.00">AppComponent</text>
</g>
<!-- AppModule -->
<g id="node16" class="node">
<title>AppModule</title>
<polygon fill="#8dd3c7" stroke="black" points="1456.66,-149.8 1453.66,-153.8 1432.66,-153.8 1429.66,-149.8 1373.34,-149.8 1373.34,-113.8 1456.66,-113.8 1456.66,-149.8"/>
<text text-anchor="middle" x="1415" y="-127.6" font-family="Times,serif" font-size="14.00">AppModule</text>
</g>
<!-- AppComponent&#45;&gt;AppModule -->
<g id="edge1" class="edge">
<title>AppComponent&#45;&gt;AppModule</title>
<path fill="none" stroke="black" d="M2790,-85.12C2790,-108.46 2790,-145.8 2790,-145.8 2790,-145.8 1466.9,-145.8 1466.9,-145.8"/>
<polygon fill="black" stroke="black" points="1466.9,-142.3 1456.9,-145.8 1466.9,-149.3 1466.9,-142.3"/>
</g>
<!-- CaseListComponent -->
<g id="node2" class="node">
<title>CaseListComponent</title>
<polygon fill="#ffffb3" stroke="black" points="2719.32,-84.8 2588.68,-84.8 2588.68,-48.8 2719.32,-48.8 2719.32,-84.8"/>
<text text-anchor="middle" x="2654" y="-62.6" font-family="Times,serif" font-size="14.00">CaseListComponent</text>
</g>
<!-- CaseListComponent&#45;&gt;AppModule -->
<g id="edge2" class="edge">
<title>CaseListComponent&#45;&gt;AppModule</title>
<path fill="none" stroke="black" d="M2654,-84.96C2654,-107.15 2654,-141.8 2654,-141.8 2654,-141.8 1466.93,-141.8 1466.93,-141.8"/>
<polygon fill="black" stroke="black" points="1466.93,-138.3 1456.93,-141.8 1466.93,-145.3 1466.93,-138.3"/>
</g>
<!-- DashboardComponent -->
<g id="node3" class="node">
<title>DashboardComponent</title>
<polygon fill="#ffffb3" stroke="black" points="2570.97,-84.8 2429.03,-84.8 2429.03,-48.8 2570.97,-48.8 2570.97,-84.8"/>
<text text-anchor="middle" x="2500" y="-62.6" font-family="Times,serif" font-size="14.00">DashboardComponent</text>
</g>
<!-- DashboardComponent&#45;&gt;AppModule -->
<g id="edge3" class="edge">
<title>DashboardComponent&#45;&gt;AppModule</title>
<path fill="none" stroke="black" d="M2500,-85.08C2500,-106.12 2500,-137.8 2500,-137.8 2500,-137.8 1466.87,-137.8 1466.87,-137.8"/>
<polygon fill="black" stroke="black" points="1466.87,-134.3 1456.87,-137.8 1466.87,-141.3 1466.87,-134.3"/>
</g>
<!-- DateTimePickerComponent -->
<g id="node4" class="node">
<title>DateTimePickerComponent</title>
<polygon fill="#ffffb3" stroke="black" points="2410.57,-84.8 2237.43,-84.8 2237.43,-48.8 2410.57,-48.8 2410.57,-84.8"/>
<text text-anchor="middle" x="2324" y="-62.6" font-family="Times,serif" font-size="14.00">DateTimePickerComponent</text>
</g>
<!-- DateTimePickerComponent&#45;&gt;AppModule -->
<g id="edge4" class="edge">
<title>DateTimePickerComponent&#45;&gt;AppModule</title>
<path fill="none" stroke="black" d="M2324,-85.11C2324,-104.95 2324,-133.8 2324,-133.8 2324,-133.8 1466.72,-133.8 1466.72,-133.8"/>
<polygon fill="black" stroke="black" points="1466.72,-130.3 1456.72,-133.8 1466.72,-137.3 1466.72,-130.3"/>
</g>
<!-- EditCaseModalComponent -->
<g id="node5" class="node">
<title>EditCaseModalComponent</title>
<polygon fill="#ffffb3" stroke="black" points="2219.43,-84.8 2050.57,-84.8 2050.57,-48.8 2219.43,-48.8 2219.43,-84.8"/>
<text text-anchor="middle" x="2135" y="-62.6" font-family="Times,serif" font-size="14.00">EditCaseModalComponent</text>
</g>
<!-- EditCaseModalComponent&#45;&gt;AppModule -->
<g id="edge5" class="edge">
<title>EditCaseModalComponent&#45;&gt;AppModule</title>
<path fill="none" stroke="black" d="M2135,-85.02C2135,-103.63 2135,-129.8 2135,-129.8 2135,-129.8 1466.82,-129.8 1466.82,-129.8"/>
<polygon fill="black" stroke="black" points="1466.82,-126.3 1456.82,-129.8 1466.82,-133.3 1466.82,-126.3"/>
</g>
<!-- FooterComponent -->
<g id="node6" class="node">
<title>FooterComponent</title>
<polygon fill="#ffffb3" stroke="black" points="2032.88,-84.8 1915.12,-84.8 1915.12,-48.8 2032.88,-48.8 2032.88,-84.8"/>
<text text-anchor="middle" x="1974" y="-62.6" font-family="Times,serif" font-size="14.00">FooterComponent</text>
</g>
<!-- FooterComponent&#45;&gt;AppModule -->
<g id="edge6" class="edge">
<title>FooterComponent&#45;&gt;AppModule</title>
<path fill="none" stroke="black" d="M1974,-84.82C1974,-102.17 1974,-125.8 1974,-125.8 1974,-125.8 1467.02,-125.8 1467.02,-125.8"/>
<polygon fill="black" stroke="black" points="1467.02,-122.3 1457.02,-125.8 1467.02,-129.3 1467.02,-122.3"/>
</g>
<!-- ForgotPasswordComponent -->
<g id="node7" class="node">
<title>ForgotPasswordComponent</title>
<polygon fill="#ffffb3" stroke="black" points="1897.32,-84.8 1724.68,-84.8 1724.68,-48.8 1897.32,-48.8 1897.32,-84.8"/>
<text text-anchor="middle" x="1811" y="-62.6" font-family="Times,serif" font-size="14.00">ForgotPasswordComponent</text>
</g>
<!-- ForgotPasswordComponent&#45;&gt;AppModule -->
<g id="edge7" class="edge">
<title>ForgotPasswordComponent&#45;&gt;AppModule</title>
<path fill="none" stroke="black" d="M1811,-84.81C1811,-100.85 1811,-121.8 1811,-121.8 1811,-121.8 1467,-121.8 1467,-121.8"/>
<polygon fill="black" stroke="black" points="1467,-118.3 1457,-121.8 1467,-125.3 1467,-118.3"/>
</g>
<!-- HeaderComponent -->
<g id="node8" class="node">
<title>HeaderComponent</title>
<polygon fill="#ffffb3" stroke="black" points="1706.74,-84.8 1585.26,-84.8 1585.26,-48.8 1706.74,-48.8 1706.74,-84.8"/>
<text text-anchor="middle" x="1646" y="-62.6" font-family="Times,serif" font-size="14.00">HeaderComponent</text>
</g>
<!-- HeaderComponent&#45;&gt;AppModule -->
<g id="edge8" class="edge">
<title>HeaderComponent&#45;&gt;AppModule</title>
<path fill="none" stroke="black" d="M1646,-84.92C1646,-99.58 1646,-117.8 1646,-117.8 1646,-117.8 1466.83,-117.8 1466.83,-117.8"/>
<polygon fill="black" stroke="black" points="1466.83,-114.3 1456.83,-117.8 1466.83,-121.3 1466.83,-114.3"/>
</g>
<!-- MyCasesComponent -->
<g id="node9" class="node">
<title>MyCasesComponent</title>
<polygon fill="#ffffb3" stroke="black" points="1566.93,-84.8 1433.07,-84.8 1433.07,-48.8 1566.93,-48.8 1566.93,-84.8"/>
<text text-anchor="middle" x="1500" y="-62.6" font-family="Times,serif" font-size="14.00">MyCasesComponent</text>
</g>
<!-- MyCasesComponent&#45;&gt;AppModule -->
<g id="edge9" class="edge">
<title>MyCasesComponent&#45;&gt;AppModule</title>
<path fill="none" stroke="black" d="M1445.06,-84.91C1445.06,-84.91 1445.06,-103.79 1445.06,-103.79"/>
<polygon fill="black" stroke="black" points="1441.56,-103.79 1445.06,-113.79 1448.56,-103.79 1441.56,-103.79"/>
</g>
<!-- NewCaseModalComponent -->
<g id="node10" class="node">
<title>NewCaseModalComponent</title>
<polygon fill="#ffffb3" stroke="black" points="1415.52,-84.8 1244.48,-84.8 1244.48,-48.8 1415.52,-48.8 1415.52,-84.8"/>
<text text-anchor="middle" x="1330" y="-62.6" font-family="Times,serif" font-size="14.00">NewCaseModalComponent</text>
</g>
<!-- NewCaseModalComponent&#45;&gt;AppModule -->
<g id="edge10" class="edge">
<title>NewCaseModalComponent&#45;&gt;AppModule</title>
<path fill="none" stroke="black" d="M1394.47,-84.91C1394.47,-84.91 1394.47,-103.79 1394.47,-103.79"/>
<polygon fill="black" stroke="black" points="1390.97,-103.79 1394.47,-113.79 1397.97,-103.79 1390.97,-103.79"/>
</g>
<!-- PrivacyPolicyComponent -->
<g id="node11" class="node">
<title>PrivacyPolicyComponent</title>
<polygon fill="#ffffb3" stroke="black" points="1225.87,-84.8 1066.13,-84.8 1066.13,-48.8 1225.87,-48.8 1225.87,-84.8"/>
<text text-anchor="middle" x="1146" y="-62.6" font-family="Times,serif" font-size="14.00">PrivacyPolicyComponent</text>
</g>
<!-- PrivacyPolicyComponent&#45;&gt;AppModule -->
<g id="edge11" class="edge">
<title>PrivacyPolicyComponent&#45;&gt;AppModule</title>
<path fill="none" stroke="black" d="M1146,-84.92C1146,-99.58 1146,-117.8 1146,-117.8 1146,-117.8 1363.26,-117.8 1363.26,-117.8"/>
<polygon fill="black" stroke="black" points="1363.26,-121.3 1373.26,-117.8 1363.26,-114.3 1363.26,-121.3"/>
</g>
<!-- SignInComponent -->
<g id="node12" class="node">
<title>SignInComponent</title>
<polygon fill="#ffffb3" stroke="black" points="1048.17,-84.8 929.83,-84.8 929.83,-48.8 1048.17,-48.8 1048.17,-84.8"/>
<text text-anchor="middle" x="989" y="-62.6" font-family="Times,serif" font-size="14.00">SignInComponent</text>
</g>
<!-- SignInComponent&#45;&gt;AppModule -->
<g id="edge12" class="edge">
<title>SignInComponent&#45;&gt;AppModule</title>
<path fill="none" stroke="black" d="M989,-84.81C989,-100.85 989,-121.8 989,-121.8 989,-121.8 1362.99,-121.8 1362.99,-121.8"/>
<polygon fill="black" stroke="black" points="1362.99,-125.3 1372.99,-121.8 1362.99,-118.3 1362.99,-125.3"/>
</g>
<!-- SignUpComponent -->
<g id="node13" class="node">
<title>SignUpComponent</title>
<polygon fill="#ffffb3" stroke="black" points="912.11,-84.8 787.89,-84.8 787.89,-48.8 912.11,-48.8 912.11,-84.8"/>
<text text-anchor="middle" x="850" y="-62.6" font-family="Times,serif" font-size="14.00">SignUpComponent</text>
</g>
<!-- SignUpComponent&#45;&gt;AppModule -->
<g id="edge13" class="edge">
<title>SignUpComponent&#45;&gt;AppModule</title>
<path fill="none" stroke="black" d="M850,-84.82C850,-102.17 850,-125.8 850,-125.8 850,-125.8 1362.99,-125.8 1362.99,-125.8"/>
<polygon fill="black" stroke="black" points="1362.99,-129.3 1372.99,-125.8 1362.99,-122.3 1362.99,-129.3"/>
</g>
<!-- UserProfileComponent -->
<g id="node14" class="node">
<title>UserProfileComponent</title>
<polygon fill="#ffffb3" stroke="black" points="769.86,-84.8 624.14,-84.8 624.14,-48.8 769.86,-48.8 769.86,-84.8"/>
<text text-anchor="middle" x="697" y="-62.6" font-family="Times,serif" font-size="14.00">UserProfileComponent</text>
</g>
<!-- UserProfileComponent&#45;&gt;AppModule -->
<g id="edge14" class="edge">
<title>UserProfileComponent&#45;&gt;AppModule</title>
<path fill="none" stroke="black" d="M697,-85.02C697,-103.63 697,-129.8 697,-129.8 697,-129.8 1363.29,-129.8 1363.29,-129.8"/>
<polygon fill="black" stroke="black" points="1363.29,-133.3 1373.29,-129.8 1363.29,-126.3 1363.29,-133.3"/>
</g>
<!-- VerifyEmailComponent -->
<g id="node15" class="node">
<title>VerifyEmailComponent</title>
<polygon fill="#ffffb3" stroke="black" points="605.8,-84.8 454.2,-84.8 454.2,-48.8 605.8,-48.8 605.8,-84.8"/>
<text text-anchor="middle" x="530" y="-62.6" font-family="Times,serif" font-size="14.00">VerifyEmailComponent</text>
</g>
<!-- VerifyEmailComponent&#45;&gt;AppModule -->
<g id="edge15" class="edge">
<title>VerifyEmailComponent&#45;&gt;AppModule</title>
<path fill="none" stroke="black" d="M530,-85.11C530,-104.95 530,-133.8 530,-133.8 530,-133.8 1363.21,-133.8 1363.21,-133.8"/>
<polygon fill="black" stroke="black" points="1363.21,-137.3 1373.21,-133.8 1363.21,-130.3 1363.21,-137.3"/>
</g>
<!-- AppComponent  -->
<g id="node18" class="node">
<title>AppComponent </title>
<polygon fill="#80b1d3" stroke="black" points="1469.44,-214.8 1360.56,-214.8 1360.56,-178.8 1469.44,-178.8 1469.44,-214.8"/>
<text text-anchor="middle" x="1415" y="-192.6" font-family="Times,serif" font-size="14.00">AppComponent </text>
</g>
<!-- AppModule&#45;&gt;AppComponent  -->
<g id="edge17" class="edge">
<title>AppModule&#45;&gt;AppComponent </title>
<path fill="none" stroke="black" stroke-dasharray="1,5" d="M1415,-149.91C1415,-149.91 1415,-168.79 1415,-168.79"/>
<polygon fill="black" stroke="black" points="1411.5,-168.79 1415,-178.79 1418.5,-168.79 1411.5,-168.79"/>
</g>
<!-- AppRoutingModule -->
<g id="node17" class="node">
<title>AppRoutingModule</title>
<polygon fill="#8dd3c7" stroke="black" points="430.27,-84.8 427.27,-88.8 406.27,-88.8 403.27,-84.8 301.73,-84.8 301.73,-48.8 430.27,-48.8 430.27,-84.8"/>
<text text-anchor="middle" x="366" y="-62.6" font-family="Times,serif" font-size="14.00">AppRoutingModule</text>
</g>
<!-- AppRoutingModule&#45;&gt;AppModule -->
<g id="edge16" class="edge">
<title>AppRoutingModule&#45;&gt;AppModule</title>
<path fill="none" stroke="black" d="M366,-85.08C366,-106.12 366,-137.8 366,-137.8 366,-137.8 1363.23,-137.8 1363.23,-137.8"/>
<polygon fill="black" stroke="black" points="1363.23,-141.3 1373.23,-137.8 1363.23,-134.3 1363.23,-141.3"/>
</g>
<!-- AuthService -->
<g id="node19" class="node">
<title>AuthService</title>
<ellipse fill="#fdb462" stroke="black" cx="219" cy="-66.8" rx="59.11" ry="18"/>
<text text-anchor="middle" x="219" y="-62.6" font-family="Times,serif" font-size="14.00">AuthService</text>
</g>
<!-- AuthService&#45;&gt;AppModule -->
<g id="edge18" class="edge">
<title>AuthService&#45;&gt;AppModule</title>
<path fill="none" stroke="black" d="M219,-84.96C219,-107.15 219,-141.8 219,-141.8 219,-141.8 1363.14,-141.8 1363.14,-141.8"/>
<polygon fill="black" stroke="black" points="1363.14,-145.3 1373.14,-141.8 1363.13,-138.3 1363.14,-145.3"/>
</g>
<!-- CaseService -->
<g id="node20" class="node">
<title>CaseService</title>
<ellipse fill="#fdb462" stroke="black" cx="83" cy="-66.8" rx="58.52" ry="18"/>
<text text-anchor="middle" x="83" y="-62.6" font-family="Times,serif" font-size="14.00">CaseService</text>
</g>
<!-- CaseService&#45;&gt;AppModule -->
<g id="edge19" class="edge">
<title>CaseService&#45;&gt;AppModule</title>
<path fill="none" stroke="black" d="M83,-85.12C83,-108.46 83,-145.8 83,-145.8 83,-145.8 1363.31,-145.8 1363.31,-145.8"/>
<polygon fill="black" stroke="black" points="1363.31,-149.3 1373.31,-145.8 1363.31,-142.3 1363.31,-149.3"/>
</g>
</g>
</svg>
