<?xml version="1.0" encoding="UTF-8" standalone="no"?>
<!DOCTYPE svg PUBLIC "-//W3C//DTD SVG 1.1//EN"
 "http://www.w3.org/Graphics/SVG/1.1/DTD/svg11.dtd">
<!-- Generated by graphviz version 2.47.3 (20210619.1520)
 -->
<!-- Title: dependencies Pages: 1 -->
<svg width="2875pt" height="247pt"
 viewBox="0.00 0.00 2875.00 246.80" xmlns="http://www.w3.org/2000/svg" xmlns:xlink="http://www.w3.org/1999/xlink">
<g id="graph0" class="graph" transform="scale(1 1) rotate(0) translate(4 242.8)">
<title>dependencies</title>
<polygon fill="white" stroke="transparent" points="-4,4 -4,-242.8 2871,-242.8 2871,4 -4,4"/>
<text text-anchor="middle" x="1433.5" y="-8.2" font-family="sans-serif" font-size="14.00">dependencies</text>
<g id="clust1" class="cluster">
<title>cluster_AppModule</title>
<polygon fill="none" stroke="black" stroke-dasharray="1,5" points="8,-32.8 8,-230.8 2859,-230.8 2859,-32.8 8,-32.8"/>
</g>
<g id="clust18" class="cluster">
<title>cluster_AppModule_imports</title>
<polygon fill="none" stroke="black" points="2707,-40.8 2707,-92.8 2851,-92.8 2851,-40.8 2707,-40.8"/>
</g>
<g id="clust2" class="cluster">
<title>cluster_AppModule_declarations</title>
<polygon fill="none" stroke="black" points="294,-40.8 294,-92.8 2699,-92.8 2699,-40.8 294,-40.8"/>
</g>
<g id="clust20" class="cluster">
<title>cluster_AppModule_bootstrap</title>
<polygon fill="none" stroke="black" points="1359,-170.8 1359,-222.8 1483,-222.8 1483,-170.8 1359,-170.8"/>
</g>
<g id="clust21" class="cluster">
<title>cluster_AppModule_providers</title>
<polygon fill="none" stroke="black" points="16,-40.8 16,-92.8 286,-92.8 286,-40.8 16,-40.8"/>
</g>
<!-- AppComponent -->
<g id="node1" class="node">
<title>AppComponent</title>
<polygon fill="#ffffb3" stroke="black" points="2690.94,-84.8 2585.06,-84.8 2585.06,-48.8 2690.94,-48.8 2690.94,-84.8"/>
<text text-anchor="middle" x="2638" y="-62.6" font-family="Times,serif" font-size="14.00">AppComponent</text>
</g>
<!-- AppModule -->
<g id="node16" class="node">
<title>AppModule</title>
<polygon fill="#8dd3c7" stroke="black" points="1462.66,-149.8 1459.66,-153.8 1438.66,-153.8 1435.66,-149.8 1379.34,-149.8 1379.34,-113.8 1462.66,-113.8 1462.66,-149.8"/>
<text text-anchor="middle" x="1421" y="-127.6" font-family="Times,serif" font-size="14.00">AppModule</text>
</g>
<!-- AppComponent&#45;&gt;AppModule -->
<g id="edge1" class="edge">
<title>AppComponent&#45;&gt;AppModule</title>
<path fill="none" stroke="black" d="M2638,-84.96C2638,-107.15 2638,-141.8 2638,-141.8 2638,-141.8 1472.89,-141.8 1472.89,-141.8"/>
<polygon fill="black" stroke="black" points="1472.89,-138.3 1462.89,-141.8 1472.89,-145.3 1472.89,-138.3"/>
</g>
<!-- CaseListComponent -->
<g id="node2" class="node">
<title>CaseListComponent</title>
<polygon fill="#ffffb3" stroke="black" points="2567.32,-84.8 2436.68,-84.8 2436.68,-48.8 2567.32,-48.8 2567.32,-84.8"/>
<text text-anchor="middle" x="2502" y="-62.6" font-family="Times,serif" font-size="14.00">CaseListComponent</text>
</g>
<!-- CaseListComponent&#45;&gt;AppModule -->
<g id="edge2" class="edge">
<title>CaseListComponent&#45;&gt;AppModule</title>
<path fill="none" stroke="black" d="M2502,-85.08C2502,-106.12 2502,-137.8 2502,-137.8 2502,-137.8 1472.71,-137.8 1472.71,-137.8"/>
<polygon fill="black" stroke="black" points="1472.71,-134.3 1462.71,-137.8 1472.71,-141.3 1472.71,-134.3"/>
</g>
<!-- DashboardComponent -->
<g id="node3" class="node">
<title>DashboardComponent</title>
<polygon fill="#ffffb3" stroke="black" points="2418.97,-84.8 2277.03,-84.8 2277.03,-48.8 2418.97,-48.8 2418.97,-84.8"/>
<text text-anchor="middle" x="2348" y="-62.6" font-family="Times,serif" font-size="14.00">DashboardComponent</text>
</g>
<!-- DashboardComponent&#45;&gt;AppModule -->
<g id="edge3" class="edge">
<title>DashboardComponent&#45;&gt;AppModule</title>
<path fill="none" stroke="black" d="M2348,-85.11C2348,-104.95 2348,-133.8 2348,-133.8 2348,-133.8 1472.94,-133.8 1472.94,-133.8"/>
<polygon fill="black" stroke="black" points="1472.94,-130.3 1462.94,-133.8 1472.94,-137.3 1472.94,-130.3"/>
</g>
<!-- DateTimePickerComponent -->
<g id="node4" class="node">
<title>DateTimePickerComponent</title>
<polygon fill="#ffffb3" stroke="black" points="2258.57,-84.8 2085.43,-84.8 2085.43,-48.8 2258.57,-48.8 2258.57,-84.8"/>
<text text-anchor="middle" x="2172" y="-62.6" font-family="Times,serif" font-size="14.00">DateTimePickerComponent</text>
</g>
<!-- DateTimePickerComponent&#45;&gt;AppModule -->
<g id="edge4" class="edge">
<title>DateTimePickerComponent&#45;&gt;AppModule</title>
<path fill="none" stroke="black" d="M2172,-85.02C2172,-103.63 2172,-129.8 2172,-129.8 2172,-129.8 1472.72,-129.8 1472.72,-129.8"/>
<polygon fill="black" stroke="black" points="1472.72,-126.3 1462.72,-129.8 1472.72,-133.3 1472.72,-126.3"/>
</g>
<!-- EditCaseModalComponent -->
<g id="node5" class="node">
<title>EditCaseModalComponent</title>
<polygon fill="#ffffb3" stroke="black" points="2067.43,-84.8 1898.57,-84.8 1898.57,-48.8 2067.43,-48.8 2067.43,-84.8"/>
<text text-anchor="middle" x="1983" y="-62.6" font-family="Times,serif" font-size="14.00">EditCaseModalComponent</text>
</g>
<!-- EditCaseModalComponent&#45;&gt;AppModule -->
<g id="edge5" class="edge">
<title>EditCaseModalComponent&#45;&gt;AppModule</title>
<path fill="none" stroke="black" d="M1983,-84.82C1983,-102.17 1983,-125.8 1983,-125.8 1983,-125.8 1472.78,-125.8 1472.78,-125.8"/>
<polygon fill="black" stroke="black" points="1472.78,-122.3 1462.78,-125.8 1472.78,-129.3 1472.78,-122.3"/>
</g>
<!-- FooterComponent -->
<g id="node6" class="node">
<title>FooterComponent</title>
<polygon fill="#ffffb3" stroke="black" points="1880.88,-84.8 1763.12,-84.8 1763.12,-48.8 1880.88,-48.8 1880.88,-84.8"/>
<text text-anchor="middle" x="1822" y="-62.6" font-family="Times,serif" font-size="14.00">FooterComponent</text>
</g>
<!-- FooterComponent&#45;&gt;AppModule -->
<g id="edge6" class="edge">
<title>FooterComponent&#45;&gt;AppModule</title>
<path fill="none" stroke="black" d="M1822,-84.81C1822,-100.85 1822,-121.8 1822,-121.8 1822,-121.8 1472.78,-121.8 1472.78,-121.8"/>
<polygon fill="black" stroke="black" points="1472.78,-118.3 1462.78,-121.8 1472.78,-125.3 1472.78,-118.3"/>
</g>
<!-- ForgotPasswordComponent -->
<g id="node7" class="node">
<title>ForgotPasswordComponent</title>
<polygon fill="#ffffb3" stroke="black" points="1745.32,-84.8 1572.68,-84.8 1572.68,-48.8 1745.32,-48.8 1745.32,-84.8"/>
<text text-anchor="middle" x="1659" y="-62.6" font-family="Times,serif" font-size="14.00">ForgotPasswordComponent</text>
</g>
<!-- ForgotPasswordComponent&#45;&gt;AppModule -->
<g id="edge7" class="edge">
<title>ForgotPasswordComponent&#45;&gt;AppModule</title>
<path fill="none" stroke="black" d="M1659,-84.92C1659,-99.58 1659,-117.8 1659,-117.8 1659,-117.8 1472.73,-117.8 1472.73,-117.8"/>
<polygon fill="black" stroke="black" points="1472.73,-114.3 1462.73,-117.8 1472.73,-121.3 1472.73,-114.3"/>
</g>
<!-- HeaderComponent -->
<g id="node8" class="node">
<title>HeaderComponent</title>
<polygon fill="#ffffb3" stroke="black" points="1554.74,-84.8 1433.26,-84.8 1433.26,-48.8 1554.74,-48.8 1554.74,-84.8"/>
<text text-anchor="middle" x="1494" y="-62.6" font-family="Times,serif" font-size="14.00">HeaderComponent</text>
</g>
<!-- HeaderComponent&#45;&gt;AppModule -->
<g id="edge8" class="edge">
<title>HeaderComponent&#45;&gt;AppModule</title>
<path fill="none" stroke="black" d="M1447.98,-84.91C1447.98,-84.91 1447.98,-103.79 1447.98,-103.79"/>
<polygon fill="black" stroke="black" points="1444.48,-103.79 1447.98,-113.79 1451.48,-103.79 1444.48,-103.79"/>
</g>
<!-- MyCasesComponent -->
<g id="node9" class="node">
<title>MyCasesComponent</title>
<polygon fill="#ffffb3" stroke="black" points="1414.93,-84.8 1281.07,-84.8 1281.07,-48.8 1414.93,-48.8 1414.93,-84.8"/>
<text text-anchor="middle" x="1348" y="-62.6" font-family="Times,serif" font-size="14.00">MyCasesComponent</text>
</g>
<!-- MyCasesComponent&#45;&gt;AppModule -->
<g id="edge9" class="edge">
<title>MyCasesComponent&#45;&gt;AppModule</title>
<path fill="none" stroke="black" d="M1396.94,-84.91C1396.94,-84.91 1396.94,-103.79 1396.94,-103.79"/>
<polygon fill="black" stroke="black" points="1393.44,-103.79 1396.94,-113.79 1400.44,-103.79 1393.44,-103.79"/>
</g>
<!-- NewCaseModalComponent -->
<g id="node10" class="node">
<title>NewCaseModalComponent</title>
<polygon fill="#ffffb3" stroke="black" points="1263.52,-84.8 1092.48,-84.8 1092.48,-48.8 1263.52,-48.8 1263.52,-84.8"/>
<text text-anchor="middle" x="1178" y="-62.6" font-family="Times,serif" font-size="14.00">NewCaseModalComponent</text>
</g>
<!-- NewCaseModalComponent&#45;&gt;AppModule -->
<g id="edge10" class="edge">
<title>NewCaseModalComponent&#45;&gt;AppModule</title>
<path fill="none" stroke="black" d="M1178,-84.92C1178,-99.58 1178,-117.8 1178,-117.8 1178,-117.8 1369.23,-117.8 1369.23,-117.8"/>
<polygon fill="black" stroke="black" points="1369.23,-121.3 1379.23,-117.8 1369.23,-114.3 1369.23,-121.3"/>
</g>
<!-- PrivacyPolicyComponent -->
<g id="node11" class="node">
<title>PrivacyPolicyComponent</title>
<polygon fill="#ffffb3" stroke="black" points="1073.87,-84.8 914.13,-84.8 914.13,-48.8 1073.87,-48.8 1073.87,-84.8"/>
<text text-anchor="middle" x="994" y="-62.6" font-family="Times,serif" font-size="14.00">PrivacyPolicyComponent</text>
</g>
<!-- PrivacyPolicyComponent&#45;&gt;AppModule -->
<g id="edge11" class="edge">
<title>PrivacyPolicyComponent&#45;&gt;AppModule</title>
<path fill="none" stroke="black" d="M994,-84.81C994,-100.85 994,-121.8 994,-121.8 994,-121.8 1369.28,-121.8 1369.28,-121.8"/>
<polygon fill="black" stroke="black" points="1369.28,-125.3 1379.28,-121.8 1369.28,-118.3 1369.28,-125.3"/>
</g>
<!-- SignInComponent -->
<g id="node12" class="node">
<title>SignInComponent</title>
<polygon fill="#ffffb3" stroke="black" points="896.17,-84.8 777.83,-84.8 777.83,-48.8 896.17,-48.8 896.17,-84.8"/>
<text text-anchor="middle" x="837" y="-62.6" font-family="Times,serif" font-size="14.00">SignInComponent</text>
</g>
<!-- SignInComponent&#45;&gt;AppModule -->
<g id="edge12" class="edge">
<title>SignInComponent&#45;&gt;AppModule</title>
<path fill="none" stroke="black" d="M837,-84.82C837,-102.17 837,-125.8 837,-125.8 837,-125.8 1369,-125.8 1369,-125.8"/>
<polygon fill="black" stroke="black" points="1369,-129.3 1379,-125.8 1369,-122.3 1369,-129.3"/>
</g>
<!-- SignUpComponent -->
<g id="node13" class="node">
<title>SignUpComponent</title>
<polygon fill="#ffffb3" stroke="black" points="760.11,-84.8 635.89,-84.8 635.89,-48.8 760.11,-48.8 760.11,-84.8"/>
<text text-anchor="middle" x="698" y="-62.6" font-family="Times,serif" font-size="14.00">SignUpComponent</text>
</g>
<!-- SignUpComponent&#45;&gt;AppModule -->
<g id="edge13" class="edge">
<title>SignUpComponent&#45;&gt;AppModule</title>
<path fill="none" stroke="black" d="M698,-85.02C698,-103.63 698,-129.8 698,-129.8 698,-129.8 1369.27,-129.8 1369.27,-129.8"/>
<polygon fill="black" stroke="black" points="1369.27,-133.3 1379.27,-129.8 1369.27,-126.3 1369.27,-133.3"/>
</g>
<!-- UserProfileComponent -->
<g id="node14" class="node">
<title>UserProfileComponent</title>
<polygon fill="#ffffb3" stroke="black" points="617.86,-84.8 472.14,-84.8 472.14,-48.8 617.86,-48.8 617.86,-84.8"/>
<text text-anchor="middle" x="545" y="-62.6" font-family="Times,serif" font-size="14.00">UserProfileComponent</text>
</g>
<!-- UserProfileComponent&#45;&gt;AppModule -->
<g id="edge14" class="edge">
<title>UserProfileComponent&#45;&gt;AppModule</title>
<path fill="none" stroke="black" d="M545,-85.11C545,-104.95 545,-133.8 545,-133.8 545,-133.8 1369.34,-133.8 1369.34,-133.8"/>
<polygon fill="black" stroke="black" points="1369.34,-137.3 1379.34,-133.8 1369.34,-130.3 1369.34,-137.3"/>
</g>
<!-- VerifyEmailComponent -->
<g id="node15" class="node">
<title>VerifyEmailComponent</title>
<polygon fill="#ffffb3" stroke="black" points="453.8,-84.8 302.2,-84.8 302.2,-48.8 453.8,-48.8 453.8,-84.8"/>
<text text-anchor="middle" x="378" y="-62.6" font-family="Times,serif" font-size="14.00">VerifyEmailComponent</text>
</g>
<!-- VerifyEmailComponent&#45;&gt;AppModule -->
<g id="edge15" class="edge">
<title>VerifyEmailComponent&#45;&gt;AppModule</title>
<path fill="none" stroke="black" d="M378,-85.08C378,-106.12 378,-137.8 378,-137.8 378,-137.8 1369.15,-137.8 1369.15,-137.8"/>
<polygon fill="black" stroke="black" points="1369.15,-141.3 1379.15,-137.8 1369.15,-134.3 1369.15,-141.3"/>
</g>
<!-- AppComponent  -->
<g id="node18" class="node">
<title>AppComponent </title>
<polygon fill="#80b1d3" stroke="black" points="1475.44,-214.8 1366.56,-214.8 1366.56,-178.8 1475.44,-178.8 1475.44,-214.8"/>
<text text-anchor="middle" x="1421" y="-192.6" font-family="Times,serif" font-size="14.00">AppComponent </text>
</g>
<!-- AppModule&#45;&gt;AppComponent  -->
<g id="edge17" class="edge">
<title>AppModule&#45;&gt;AppComponent </title>
<path fill="none" stroke="black" stroke-dasharray="1,5" d="M1421,-149.91C1421,-149.91 1421,-168.79 1421,-168.79"/>
<polygon fill="black" stroke="black" points="1417.5,-168.79 1421,-178.79 1424.5,-168.79 1417.5,-168.79"/>
</g>
<!-- AppRoutingModule -->
<g id="node17" class="node">
<title>AppRoutingModule</title>
<polygon fill="#8dd3c7" stroke="black" points="2843.27,-84.8 2840.27,-88.8 2819.27,-88.8 2816.27,-84.8 2714.73,-84.8 2714.73,-48.8 2843.27,-48.8 2843.27,-84.8"/>
<text text-anchor="middle" x="2779" y="-62.6" font-family="Times,serif" font-size="14.00">AppRoutingModule</text>
</g>
<!-- AppRoutingModule&#45;&gt;AppModule -->
<g id="edge16" class="edge">
<title>AppRoutingModule&#45;&gt;AppModule</title>
<path fill="none" stroke="black" d="M2779,-85.12C2779,-108.46 2779,-145.8 2779,-145.8 2779,-145.8 1472.76,-145.8 1472.76,-145.8"/>
<polygon fill="black" stroke="black" points="1472.76,-142.3 1462.76,-145.8 1472.76,-149.3 1472.76,-142.3"/>
</g>
<!-- AuthService -->
<g id="node19" class="node">
<title>AuthService</title>
<ellipse fill="#fdb462" stroke="black" cx="219" cy="-66.8" rx="59.11" ry="18"/>
<text text-anchor="middle" x="219" y="-62.6" font-family="Times,serif" font-size="14.00">AuthService</text>
</g>
<!-- AuthService&#45;&gt;AppModule -->
<g id="edge18" class="edge">
<title>AuthService&#45;&gt;AppModule</title>
<path fill="none" stroke="black" d="M219,-84.96C219,-107.15 219,-141.8 219,-141.8 219,-141.8 1369.28,-141.8 1369.28,-141.8"/>
<polygon fill="black" stroke="black" points="1369.28,-145.3 1379.28,-141.8 1369.28,-138.3 1369.28,-145.3"/>
</g>
<!-- CaseService -->
<g id="node20" class="node">
<title>CaseService</title>
<ellipse fill="#fdb462" stroke="black" cx="83" cy="-66.8" rx="58.52" ry="18"/>
<text text-anchor="middle" x="83" y="-62.6" font-family="Times,serif" font-size="14.00">CaseService</text>
</g>
<!-- CaseService&#45;&gt;AppModule -->
<g id="edge19" class="edge">
<title>CaseService&#45;&gt;AppModule</title>
<path fill="none" stroke="black" d="M83,-85.12C83,-108.46 83,-145.8 83,-145.8 83,-145.8 1369.12,-145.8 1369.12,-145.8"/>
<polygon fill="black" stroke="black" points="1369.12,-149.3 1379.12,-145.8 1369.12,-142.3 1369.12,-149.3"/>
</g>
</g>
</svg>
