<?xml version="1.0" encoding="UTF-8" standalone="no"?>
<!DOCTYPE svg PUBLIC "-//W3C//DTD SVG 1.1//EN"
 "http://www.w3.org/Graphics/SVG/1.1/DTD/svg11.dtd">
<!-- Generated by graphviz version 2.47.3 (20210619.1520)
 -->
<!-- Title: dependencies Pages: 1 -->
<svg width="2505pt" height="247pt"
 viewBox="0.00 0.00 2505.00 246.80" xmlns="http://www.w3.org/2000/svg" xmlns:xlink="http://www.w3.org/1999/xlink">
<g id="graph0" class="graph" transform="scale(1 1) rotate(0) translate(4 242.8)">
<title>dependencies</title>
<polygon fill="white" stroke="transparent" points="-4,4 -4,-242.8 2501,-242.8 2501,4 -4,4"/>
<text text-anchor="middle" x="1248.5" y="-8.2" font-family="sans-serif" font-size="14.00">dependencies</text>
<g id="clust1" class="cluster">
<title>cluster_AppModule</title>
<polygon fill="none" stroke="black" stroke-dasharray="1,5" points="8,-32.8 8,-230.8 2489,-230.8 2489,-32.8 8,-32.8"/>
</g>
<g id="clust19" class="cluster">
<title>cluster_AppModule_providers</title>
<polygon fill="none" stroke="black" points="2211,-40.8 2211,-92.8 2481,-92.8 2481,-40.8 2211,-40.8"/>
</g>
<g id="clust16" class="cluster">
<title>cluster_AppModule_imports</title>
<polygon fill="none" stroke="black" points="2059,-40.8 2059,-92.8 2203,-92.8 2203,-40.8 2059,-40.8"/>
</g>
<g id="clust18" class="cluster">
<title>cluster_AppModule_bootstrap</title>
<polygon fill="none" stroke="black" points="1222,-170.8 1222,-222.8 1346,-222.8 1346,-170.8 1222,-170.8"/>
</g>
<g id="clust2" class="cluster">
<title>cluster_AppModule_declarations</title>
<polygon fill="none" stroke="black" points="16,-40.8 16,-92.8 2051,-92.8 2051,-40.8 16,-40.8"/>
</g>
<!-- AppComponent -->
<g id="node1" class="node">
<title>AppComponent</title>
<polygon fill="#ffffb3" stroke="black" points="2042.94,-84.8 1937.06,-84.8 1937.06,-48.8 2042.94,-48.8 2042.94,-84.8"/>
<text text-anchor="middle" x="1990" y="-62.6" font-family="Times,serif" font-size="14.00">AppComponent</text>
</g>
<!-- AppModule -->
<g id="node14" class="node">
<title>AppModule</title>
<polygon fill="#8dd3c7" stroke="black" points="1325.66,-149.8 1322.66,-153.8 1301.66,-153.8 1298.66,-149.8 1242.34,-149.8 1242.34,-113.8 1325.66,-113.8 1325.66,-149.8"/>
<text text-anchor="middle" x="1284" y="-127.6" font-family="Times,serif" font-size="14.00">AppModule</text>
</g>
<!-- AppComponent&#45;&gt;AppModule -->
<g id="edge1" class="edge">
<title>AppComponent&#45;&gt;AppModule</title>
<path fill="none" stroke="black" d="M1990,-84.91C1990,-104.14 1990,-131.8 1990,-131.8 1990,-131.8 1335.79,-131.8 1335.79,-131.8"/>
<polygon fill="black" stroke="black" points="1335.79,-128.3 1325.79,-131.8 1335.79,-135.3 1335.79,-128.3"/>
</g>
<!-- CaseListComponent -->
<g id="node2" class="node">
<title>CaseListComponent</title>
<polygon fill="#ffffb3" stroke="black" points="1919.32,-84.8 1788.68,-84.8 1788.68,-48.8 1919.32,-48.8 1919.32,-84.8"/>
<text text-anchor="middle" x="1854" y="-62.6" font-family="Times,serif" font-size="14.00">CaseListComponent</text>
</g>
<!-- CaseListComponent&#45;&gt;AppModule -->
<g id="edge2" class="edge">
<title>CaseListComponent&#45;&gt;AppModule</title>
<path fill="none" stroke="black" d="M1854,-85.1C1854,-103.07 1854,-127.8 1854,-127.8 1854,-127.8 1335.91,-127.8 1335.91,-127.8"/>
<polygon fill="black" stroke="black" points="1335.91,-124.3 1325.91,-127.8 1335.91,-131.3 1335.91,-124.3"/>
</g>
<!-- DashboardComponent -->
<g id="node3" class="node">
<title>DashboardComponent</title>
<polygon fill="#ffffb3" stroke="black" points="1770.97,-84.8 1629.03,-84.8 1629.03,-48.8 1770.97,-48.8 1770.97,-84.8"/>
<text text-anchor="middle" x="1700" y="-62.6" font-family="Times,serif" font-size="14.00">DashboardComponent</text>
</g>
<!-- DashboardComponent&#45;&gt;AppModule -->
<g id="edge3" class="edge">
<title>DashboardComponent&#45;&gt;AppModule</title>
<path fill="none" stroke="black" d="M1700,-84.83C1700,-101.2 1700,-122.8 1700,-122.8 1700,-122.8 1335.79,-122.8 1335.79,-122.8"/>
<polygon fill="black" stroke="black" points="1335.79,-119.3 1325.79,-122.8 1335.79,-126.3 1335.79,-119.3"/>
</g>
<!-- EditCaseModalComponent -->
<g id="node4" class="node">
<title>EditCaseModalComponent</title>
<polygon fill="#ffffb3" stroke="black" points="1611.43,-84.8 1442.57,-84.8 1442.57,-48.8 1611.43,-48.8 1611.43,-84.8"/>
<text text-anchor="middle" x="1527" y="-62.6" font-family="Times,serif" font-size="14.00">EditCaseModalComponent</text>
</g>
<!-- EditCaseModalComponent&#45;&gt;AppModule -->
<g id="edge4" class="edge">
<title>EditCaseModalComponent&#45;&gt;AppModule</title>
<path fill="none" stroke="black" d="M1527,-84.99C1527,-99.98 1527,-118.8 1527,-118.8 1527,-118.8 1335.77,-118.8 1335.77,-118.8"/>
<polygon fill="black" stroke="black" points="1335.77,-115.3 1325.77,-118.8 1335.77,-122.3 1335.77,-115.3"/>
</g>
<!-- FooterComponent -->
<g id="node5" class="node">
<title>FooterComponent</title>
<polygon fill="#ffffb3" stroke="black" points="1424.88,-84.8 1307.12,-84.8 1307.12,-48.8 1424.88,-48.8 1424.88,-84.8"/>
<text text-anchor="middle" x="1366" y="-62.6" font-family="Times,serif" font-size="14.00">FooterComponent</text>
</g>
<!-- FooterComponent&#45;&gt;AppModule -->
<g id="edge5" class="edge">
<title>FooterComponent&#45;&gt;AppModule</title>
<path fill="none" stroke="black" d="M1316.44,-84.91C1316.44,-84.91 1316.44,-103.79 1316.44,-103.79"/>
<polygon fill="black" stroke="black" points="1312.94,-103.79 1316.44,-113.79 1319.94,-103.79 1312.94,-103.79"/>
</g>
<!-- ForgotPasswordComponent -->
<g id="node6" class="node">
<title>ForgotPasswordComponent</title>
<polygon fill="#ffffb3" stroke="black" points="1289.32,-84.8 1116.68,-84.8 1116.68,-48.8 1289.32,-48.8 1289.32,-84.8"/>
<text text-anchor="middle" x="1203" y="-62.6" font-family="Times,serif" font-size="14.00">ForgotPasswordComponent</text>
</g>
<!-- ForgotPasswordComponent&#45;&gt;AppModule -->
<g id="edge6" class="edge">
<title>ForgotPasswordComponent&#45;&gt;AppModule</title>
<path fill="none" stroke="black" d="M1265.67,-84.91C1265.67,-84.91 1265.67,-103.79 1265.67,-103.79"/>
<polygon fill="black" stroke="black" points="1262.17,-103.79 1265.67,-113.79 1269.17,-103.79 1262.17,-103.79"/>
</g>
<!-- HeaderComponent -->
<g id="node7" class="node">
<title>HeaderComponent</title>
<polygon fill="#ffffb3" stroke="black" points="1098.74,-84.8 977.26,-84.8 977.26,-48.8 1098.74,-48.8 1098.74,-84.8"/>
<text text-anchor="middle" x="1038" y="-62.6" font-family="Times,serif" font-size="14.00">HeaderComponent</text>
</g>
<!-- HeaderComponent&#45;&gt;AppModule -->
<g id="edge7" class="edge">
<title>HeaderComponent&#45;&gt;AppModule</title>
<path fill="none" stroke="black" d="M1038,-84.99C1038,-99.98 1038,-118.8 1038,-118.8 1038,-118.8 1232.27,-118.8 1232.27,-118.8"/>
<polygon fill="black" stroke="black" points="1232.27,-122.3 1242.27,-118.8 1232.27,-115.3 1232.27,-122.3"/>
</g>
<!-- MyCasesComponent -->
<g id="node8" class="node">
<title>MyCasesComponent</title>
<polygon fill="#ffffb3" stroke="black" points="958.93,-84.8 825.07,-84.8 825.07,-48.8 958.93,-48.8 958.93,-84.8"/>
<text text-anchor="middle" x="892" y="-62.6" font-family="Times,serif" font-size="14.00">MyCasesComponent</text>
</g>
<!-- MyCasesComponent&#45;&gt;AppModule -->
<g id="edge8" class="edge">
<title>MyCasesComponent&#45;&gt;AppModule</title>
<path fill="none" stroke="black" d="M892,-84.83C892,-101.2 892,-122.8 892,-122.8 892,-122.8 1232.05,-122.8 1232.05,-122.8"/>
<polygon fill="black" stroke="black" points="1232.05,-126.3 1242.05,-122.8 1232.05,-119.3 1232.05,-126.3"/>
</g>
<!-- NewCaseModalComponent -->
<g id="node9" class="node">
<title>NewCaseModalComponent</title>
<polygon fill="#ffffb3" stroke="black" points="807.52,-84.8 636.48,-84.8 636.48,-48.8 807.52,-48.8 807.52,-84.8"/>
<text text-anchor="middle" x="722" y="-62.6" font-family="Times,serif" font-size="14.00">NewCaseModalComponent</text>
</g>
<!-- NewCaseModalComponent&#45;&gt;AppModule -->
<g id="edge9" class="edge">
<title>NewCaseModalComponent&#45;&gt;AppModule</title>
<path fill="none" stroke="black" d="M722,-85.1C722,-103.07 722,-127.8 722,-127.8 722,-127.8 1232.22,-127.8 1232.22,-127.8"/>
<polygon fill="black" stroke="black" points="1232.22,-131.3 1242.22,-127.8 1232.22,-124.3 1232.22,-131.3"/>
</g>
<!-- SignInComponent -->
<g id="node10" class="node">
<title>SignInComponent</title>
<polygon fill="#ffffb3" stroke="black" points="618.17,-84.8 499.83,-84.8 499.83,-48.8 618.17,-48.8 618.17,-84.8"/>
<text text-anchor="middle" x="559" y="-62.6" font-family="Times,serif" font-size="14.00">SignInComponent</text>
</g>
<!-- SignInComponent&#45;&gt;AppModule -->
<g id="edge10" class="edge">
<title>SignInComponent&#45;&gt;AppModule</title>
<path fill="none" stroke="black" d="M559,-84.91C559,-104.14 559,-131.8 559,-131.8 559,-131.8 1232.15,-131.8 1232.15,-131.8"/>
<polygon fill="black" stroke="black" points="1232.15,-135.3 1242.15,-131.8 1232.15,-128.3 1232.15,-135.3"/>
</g>
<!-- SignUpComponent -->
<g id="node11" class="node">
<title>SignUpComponent</title>
<polygon fill="#ffffb3" stroke="black" points="482.11,-84.8 357.89,-84.8 357.89,-48.8 482.11,-48.8 482.11,-84.8"/>
<text text-anchor="middle" x="420" y="-62.6" font-family="Times,serif" font-size="14.00">SignUpComponent</text>
</g>
<!-- SignUpComponent&#45;&gt;AppModule -->
<g id="edge11" class="edge">
<title>SignUpComponent&#45;&gt;AppModule</title>
<path fill="none" stroke="black" d="M420,-84.83C420,-105.57 420,-136.8 420,-136.8 420,-136.8 1232.33,-136.8 1232.33,-136.8"/>
<polygon fill="black" stroke="black" points="1232.33,-140.3 1242.33,-136.8 1232.33,-133.3 1232.33,-140.3"/>
</g>
<!-- UserProfileComponent -->
<g id="node12" class="node">
<title>UserProfileComponent</title>
<polygon fill="#ffffb3" stroke="black" points="339.86,-84.8 194.14,-84.8 194.14,-48.8 339.86,-48.8 339.86,-84.8"/>
<text text-anchor="middle" x="267" y="-62.6" font-family="Times,serif" font-size="14.00">UserProfileComponent</text>
</g>
<!-- UserProfileComponent&#45;&gt;AppModule -->
<g id="edge12" class="edge">
<title>UserProfileComponent&#45;&gt;AppModule</title>
<path fill="none" stroke="black" d="M267,-85.09C267,-107.01 267,-140.8 267,-140.8 267,-140.8 1232.24,-140.8 1232.24,-140.8"/>
<polygon fill="black" stroke="black" points="1232.24,-144.3 1242.24,-140.8 1232.24,-137.3 1232.24,-144.3"/>
</g>
<!-- VerifyEmailComponent -->
<g id="node13" class="node">
<title>VerifyEmailComponent</title>
<polygon fill="#ffffb3" stroke="black" points="175.8,-84.8 24.2,-84.8 24.2,-48.8 175.8,-48.8 175.8,-84.8"/>
<text text-anchor="middle" x="100" y="-62.6" font-family="Times,serif" font-size="14.00">VerifyEmailComponent</text>
</g>
<!-- VerifyEmailComponent&#45;&gt;AppModule -->
<g id="edge13" class="edge">
<title>VerifyEmailComponent&#45;&gt;AppModule</title>
<path fill="none" stroke="black" d="M100,-85.12C100,-108.46 100,-145.8 100,-145.8 100,-145.8 1232.21,-145.8 1232.21,-145.8"/>
<polygon fill="black" stroke="black" points="1232.21,-149.3 1242.21,-145.8 1232.21,-142.3 1232.21,-149.3"/>
</g>
<!-- AppComponent  -->
<g id="node16" class="node">
<title>AppComponent </title>
<polygon fill="#80b1d3" stroke="black" points="1338.44,-214.8 1229.56,-214.8 1229.56,-178.8 1338.44,-178.8 1338.44,-214.8"/>
<text text-anchor="middle" x="1284" y="-192.6" font-family="Times,serif" font-size="14.00">AppComponent </text>
</g>
<!-- AppModule&#45;&gt;AppComponent  -->
<g id="edge15" class="edge">
<title>AppModule&#45;&gt;AppComponent </title>
<path fill="none" stroke="black" stroke-dasharray="1,5" d="M1284,-149.91C1284,-149.91 1284,-168.79 1284,-168.79"/>
<polygon fill="black" stroke="black" points="1280.5,-168.79 1284,-178.79 1287.5,-168.79 1280.5,-168.79"/>
</g>
<!-- AppRoutingModule -->
<g id="node15" class="node">
<title>AppRoutingModule</title>
<polygon fill="#8dd3c7" stroke="black" points="2195.27,-84.8 2192.27,-88.8 2171.27,-88.8 2168.27,-84.8 2066.73,-84.8 2066.73,-48.8 2195.27,-48.8 2195.27,-84.8"/>
<text text-anchor="middle" x="2131" y="-62.6" font-family="Times,serif" font-size="14.00">AppRoutingModule</text>
</g>
<!-- AppRoutingModule&#45;&gt;AppModule -->
<g id="edge14" class="edge">
<title>AppRoutingModule&#45;&gt;AppModule</title>
<path fill="none" stroke="black" d="M2131,-84.83C2131,-105.57 2131,-136.8 2131,-136.8 2131,-136.8 1335.71,-136.8 1335.71,-136.8"/>
<polygon fill="black" stroke="black" points="1335.71,-133.3 1325.71,-136.8 1335.71,-140.3 1335.71,-133.3"/>
</g>
<!-- AuthService -->
<g id="node17" class="node">
<title>AuthService</title>
<ellipse fill="#fdb462" stroke="black" cx="2414" cy="-66.8" rx="59.11" ry="18"/>
<text text-anchor="middle" x="2414" y="-62.6" font-family="Times,serif" font-size="14.00">AuthService</text>
</g>
<!-- AuthService&#45;&gt;AppModule -->
<g id="edge16" class="edge">
<title>AuthService&#45;&gt;AppModule</title>
<path fill="none" stroke="black" d="M2414,-85.12C2414,-108.46 2414,-145.8 2414,-145.8 2414,-145.8 1335.9,-145.8 1335.9,-145.8"/>
<polygon fill="black" stroke="black" points="1335.9,-142.3 1325.9,-145.8 1335.9,-149.3 1335.9,-142.3"/>
</g>
<!-- CaseService -->
<g id="node18" class="node">
<title>CaseService</title>
<ellipse fill="#fdb462" stroke="black" cx="2278" cy="-66.8" rx="58.52" ry="18"/>
<text text-anchor="middle" x="2278" y="-62.6" font-family="Times,serif" font-size="14.00">CaseService</text>
</g>
<!-- CaseService&#45;&gt;AppModule -->
<g id="edge17" class="edge">
<title>CaseService&#45;&gt;AppModule</title>
<path fill="none" stroke="black" d="M2278,-85.09C2278,-107.01 2278,-140.8 2278,-140.8 2278,-140.8 1335.76,-140.8 1335.76,-140.8"/>
<polygon fill="black" stroke="black" points="1335.76,-137.3 1325.76,-140.8 1335.76,-144.3 1335.76,-137.3"/>
</g>
</g>
</svg>
