<?xml version="1.0" encoding="UTF-8" standalone="no"?>
<!DOCTYPE svg PUBLIC "-//W3C//DTD SVG 1.1//EN"
 "http://www.w3.org/Graphics/SVG/1.1/DTD/svg11.dtd">
<!-- Generated by graphviz version 2.47.3 (20210619.1520)
 -->
<!-- Title: dependencies Pages: 1 -->
<svg width="4150pt" height="247pt"
 viewBox="0.00 0.00 4150.00 246.80" xmlns="http://www.w3.org/2000/svg" xmlns:xlink="http://www.w3.org/1999/xlink">
<g id="graph0" class="graph" transform="scale(1 1) rotate(0) translate(4 242.8)">
<title>dependencies</title>
<polygon fill="white" stroke="transparent" points="-4,4 -4,-242.8 4146,-242.8 4146,4 -4,4"/>
<text text-anchor="middle" x="2071" y="-8.2" font-family="sans-serif" font-size="14.00">dependencies</text>
<g id="clust1" class="cluster">
<title>cluster_AppModule</title>
<polygon fill="none" stroke="black" stroke-dasharray="1,5" points="8,-32.8 8,-230.8 4134,-230.8 4134,-32.8 8,-32.8"/>
</g>
<g id="clust28" class="cluster">
<title>cluster_AppModule_providers</title>
<polygon fill="none" stroke="black" points="3856,-40.8 3856,-92.8 4126,-92.8 4126,-40.8 3856,-40.8"/>
</g>
<g id="clust25" class="cluster">
<title>cluster_AppModule_imports</title>
<polygon fill="none" stroke="black" points="3704,-40.8 3704,-92.8 3848,-92.8 3848,-40.8 3704,-40.8"/>
</g>
<g id="clust27" class="cluster">
<title>cluster_AppModule_bootstrap</title>
<polygon fill="none" stroke="black" points="2031,-170.8 2031,-222.8 2155,-222.8 2155,-170.8 2031,-170.8"/>
</g>
<g id="clust2" class="cluster">
<title>cluster_AppModule_declarations</title>
<polygon fill="none" stroke="black" points="16,-40.8 16,-92.8 3696,-92.8 3696,-40.8 16,-40.8"/>
</g>
<!-- AddCreditModalComponent -->
<g id="node1" class="node">
<title>AddCreditModalComponent</title>
<polygon fill="#ffffb3" stroke="black" points="3688.48,-84.8 3511.52,-84.8 3511.52,-48.8 3688.48,-48.8 3688.48,-84.8"/>
<text text-anchor="middle" x="3600" y="-62.6" font-family="Times,serif" font-size="14.00">AddCreditModalComponent</text>
</g>
<!-- AppModule -->
<g id="node23" class="node">
<title>AppModule</title>
<polygon fill="#8dd3c7" stroke="black" points="2134.66,-149.8 2131.66,-153.8 2110.66,-153.8 2107.66,-149.8 2051.34,-149.8 2051.34,-113.8 2134.66,-113.8 2134.66,-149.8"/>
<text text-anchor="middle" x="2093" y="-127.6" font-family="Times,serif" font-size="14.00">AppModule</text>
</g>
<!-- AddCreditModalComponent&#45;&gt;AppModule -->
<g id="edge1" class="edge">
<title>AddCreditModalComponent&#45;&gt;AppModule</title>
<path fill="none" stroke="black" d="M3600,-84.97C3600,-106.3 3600,-138.8 3600,-138.8 3600,-138.8 2144.88,-138.8 2144.88,-138.8"/>
<polygon fill="black" stroke="black" points="2144.88,-135.3 2134.88,-138.8 2144.88,-142.3 2144.88,-135.3"/>
</g>
<!-- AlertComponent -->
<g id="node2" class="node">
<title>AlertComponent</title>
<polygon fill="#ffffb3" stroke="black" points="3493.1,-84.8 3382.9,-84.8 3382.9,-48.8 3493.1,-48.8 3493.1,-84.8"/>
<text text-anchor="middle" x="3438" y="-62.6" font-family="Times,serif" font-size="14.00">AlertComponent</text>
</g>
<!-- AlertComponent&#45;&gt;AppModule -->
<g id="edge2" class="edge">
<title>AlertComponent&#45;&gt;AppModule</title>
<path fill="none" stroke="black" d="M3438,-84.83C3438,-105.57 3438,-136.8 3438,-136.8 3438,-136.8 2144.73,-136.8 2144.73,-136.8"/>
<polygon fill="black" stroke="black" points="2144.73,-133.3 2134.73,-136.8 2144.73,-140.3 2144.73,-133.3"/>
</g>
<!-- AppComponent -->
<g id="node3" class="node">
<title>AppComponent</title>
<polygon fill="#ffffb3" stroke="black" points="3364.94,-84.8 3259.06,-84.8 3259.06,-48.8 3364.94,-48.8 3364.94,-84.8"/>
<text text-anchor="middle" x="3312" y="-62.6" font-family="Times,serif" font-size="14.00">AppComponent</text>
</g>
<!-- AppComponent&#45;&gt;AppModule -->
<g id="edge3" class="edge">
<title>AppComponent&#45;&gt;AppModule</title>
<path fill="none" stroke="black" d="M3312,-85.11C3312,-104.95 3312,-133.8 3312,-133.8 3312,-133.8 2144.96,-133.8 2144.96,-133.8"/>
<polygon fill="black" stroke="black" points="2144.96,-130.3 2134.96,-133.8 2144.96,-137.3 2144.96,-130.3"/>
</g>
<!-- CaseListComponent -->
<g id="node4" class="node">
<title>CaseListComponent</title>
<polygon fill="#ffffb3" stroke="black" points="3241.32,-84.8 3110.68,-84.8 3110.68,-48.8 3241.32,-48.8 3241.32,-84.8"/>
<text text-anchor="middle" x="3176" y="-62.6" font-family="Times,serif" font-size="14.00">CaseListComponent</text>
</g>
<!-- CaseListComponent&#45;&gt;AppModule -->
<g id="edge4" class="edge">
<title>CaseListComponent&#45;&gt;AppModule</title>
<path fill="none" stroke="black" d="M3176,-84.97C3176,-103.89 3176,-130.8 3176,-130.8 3176,-130.8 2144.79,-130.8 2144.79,-130.8"/>
<polygon fill="black" stroke="black" points="2144.79,-127.3 2134.79,-130.8 2144.79,-134.3 2144.79,-127.3"/>
</g>
<!-- ConfirmModalComponent -->
<g id="node5" class="node">
<title>ConfirmModalComponent</title>
<polygon fill="#ffffb3" stroke="black" points="3092.82,-84.8 2927.18,-84.8 2927.18,-48.8 3092.82,-48.8 3092.82,-84.8"/>
<text text-anchor="middle" x="3010" y="-62.6" font-family="Times,serif" font-size="14.00">ConfirmModalComponent</text>
</g>
<!-- ConfirmModalComponent&#45;&gt;AppModule -->
<g id="edge5" class="edge">
<title>ConfirmModalComponent&#45;&gt;AppModule</title>
<path fill="none" stroke="black" d="M3010,-85.1C3010,-103.07 3010,-127.8 3010,-127.8 3010,-127.8 2144.78,-127.8 2144.78,-127.8"/>
<polygon fill="black" stroke="black" points="2144.78,-124.3 2134.78,-127.8 2144.78,-131.3 2144.78,-124.3"/>
</g>
<!-- DashboardComponent -->
<g id="node6" class="node">
<title>DashboardComponent</title>
<polygon fill="#ffffb3" stroke="black" points="2908.97,-84.8 2767.03,-84.8 2767.03,-48.8 2908.97,-48.8 2908.97,-84.8"/>
<text text-anchor="middle" x="2838" y="-62.6" font-family="Times,serif" font-size="14.00">DashboardComponent</text>
</g>
<!-- DashboardComponent&#45;&gt;AppModule -->
<g id="edge6" class="edge">
<title>DashboardComponent&#45;&gt;AppModule</title>
<path fill="none" stroke="black" d="M2838,-84.82C2838,-102.17 2838,-125.8 2838,-125.8 2838,-125.8 2144.92,-125.8 2144.92,-125.8"/>
<polygon fill="black" stroke="black" points="2144.92,-122.3 2134.92,-125.8 2144.92,-129.3 2144.92,-122.3"/>
</g>
<!-- DateTimePickerComponent -->
<g id="node7" class="node">
<title>DateTimePickerComponent</title>
<polygon fill="#ffffb3" stroke="black" points="2748.57,-84.8 2575.43,-84.8 2575.43,-48.8 2748.57,-48.8 2748.57,-84.8"/>
<text text-anchor="middle" x="2662" y="-62.6" font-family="Times,serif" font-size="14.00">DateTimePickerComponent</text>
</g>
<!-- DateTimePickerComponent&#45;&gt;AppModule -->
<g id="edge7" class="edge">
<title>DateTimePickerComponent&#45;&gt;AppModule</title>
<path fill="none" stroke="black" d="M2662,-84.83C2662,-101.2 2662,-122.8 2662,-122.8 2662,-122.8 2144.84,-122.8 2144.84,-122.8"/>
<polygon fill="black" stroke="black" points="2144.84,-119.3 2134.84,-122.8 2144.84,-126.3 2144.84,-119.3"/>
</g>
<!-- EditCaseModalComponent -->
<g id="node8" class="node">
<title>EditCaseModalComponent</title>
<polygon fill="#ffffb3" stroke="black" points="2557.43,-84.8 2388.57,-84.8 2388.57,-48.8 2557.43,-48.8 2557.43,-84.8"/>
<text text-anchor="middle" x="2473" y="-62.6" font-family="Times,serif" font-size="14.00">EditCaseModalComponent</text>
</g>
<!-- EditCaseModalComponent&#45;&gt;AppModule -->
<g id="edge8" class="edge">
<title>EditCaseModalComponent&#45;&gt;AppModule</title>
<path fill="none" stroke="black" d="M2473,-85.04C2473,-100.37 2473,-119.8 2473,-119.8 2473,-119.8 2144.75,-119.8 2144.75,-119.8"/>
<polygon fill="black" stroke="black" points="2144.75,-116.3 2134.75,-119.8 2144.75,-123.3 2144.75,-116.3"/>
</g>
<!-- EditUserModalComponent -->
<g id="node9" class="node">
<title>EditUserModalComponent</title>
<polygon fill="#ffffb3" stroke="black" points="2370.64,-84.8 2203.36,-84.8 2203.36,-48.8 2370.64,-48.8 2370.64,-84.8"/>
<text text-anchor="middle" x="2287" y="-62.6" font-family="Times,serif" font-size="14.00">EditUserModalComponent</text>
</g>
<!-- EditUserModalComponent&#45;&gt;AppModule -->
<g id="edge9" class="edge">
<title>EditUserModalComponent&#45;&gt;AppModule</title>
<path fill="none" stroke="black" d="M2287,-84.85C2287,-99.17 2287,-116.8 2287,-116.8 2287,-116.8 2145.1,-116.8 2145.1,-116.8"/>
<polygon fill="black" stroke="black" points="2145.1,-113.3 2135.1,-116.8 2145.1,-120.3 2145.1,-113.3"/>
</g>
<!-- EditVehicleModalComponent -->
<g id="node10" class="node">
<title>EditVehicleModalComponent</title>
<polygon fill="#ffffb3" stroke="black" points="2185.25,-84.8 2000.75,-84.8 2000.75,-48.8 2185.25,-48.8 2185.25,-84.8"/>
<text text-anchor="middle" x="2093" y="-62.6" font-family="Times,serif" font-size="14.00">EditVehicleModalComponent</text>
</g>
<!-- EditVehicleModalComponent&#45;&gt;AppModule -->
<g id="edge10" class="edge">
<title>EditVehicleModalComponent&#45;&gt;AppModule</title>
<path fill="none" stroke="black" d="M2093,-84.91C2093,-84.91 2093,-103.79 2093,-103.79"/>
<polygon fill="black" stroke="black" points="2089.5,-103.79 2093,-113.79 2096.5,-103.79 2089.5,-103.79"/>
</g>
<!-- FooterComponent -->
<g id="node11" class="node">
<title>FooterComponent</title>
<polygon fill="#ffffb3" stroke="black" points="1982.88,-84.8 1865.12,-84.8 1865.12,-48.8 1982.88,-48.8 1982.88,-84.8"/>
<text text-anchor="middle" x="1924" y="-62.6" font-family="Times,serif" font-size="14.00">FooterComponent</text>
</g>
<!-- FooterComponent&#45;&gt;AppModule -->
<g id="edge11" class="edge">
<title>FooterComponent&#45;&gt;AppModule</title>
<path fill="none" stroke="black" d="M1924,-84.85C1924,-99.17 1924,-116.8 1924,-116.8 1924,-116.8 2041.22,-116.8 2041.22,-116.8"/>
<polygon fill="black" stroke="black" points="2041.22,-120.3 2051.22,-116.8 2041.22,-113.3 2041.22,-120.3"/>
</g>
<!-- ForgotPasswordComponent -->
<g id="node12" class="node">
<title>ForgotPasswordComponent</title>
<polygon fill="#ffffb3" stroke="black" points="1847.32,-84.8 1674.68,-84.8 1674.68,-48.8 1847.32,-48.8 1847.32,-84.8"/>
<text text-anchor="middle" x="1761" y="-62.6" font-family="Times,serif" font-size="14.00">ForgotPasswordComponent</text>
</g>
<!-- ForgotPasswordComponent&#45;&gt;AppModule -->
<g id="edge12" class="edge">
<title>ForgotPasswordComponent&#45;&gt;AppModule</title>
<path fill="none" stroke="black" d="M1761,-85.04C1761,-100.37 1761,-119.8 1761,-119.8 1761,-119.8 2041.29,-119.8 2041.29,-119.8"/>
<polygon fill="black" stroke="black" points="2041.29,-123.3 2051.29,-119.8 2041.29,-116.3 2041.29,-123.3"/>
</g>
<!-- HeaderComponent -->
<g id="node13" class="node">
<title>HeaderComponent</title>
<polygon fill="#ffffb3" stroke="black" points="1656.74,-84.8 1535.26,-84.8 1535.26,-48.8 1656.74,-48.8 1656.74,-84.8"/>
<text text-anchor="middle" x="1596" y="-62.6" font-family="Times,serif" font-size="14.00">HeaderComponent</text>
</g>
<!-- HeaderComponent&#45;&gt;AppModule -->
<g id="edge13" class="edge">
<title>HeaderComponent&#45;&gt;AppModule</title>
<path fill="none" stroke="black" d="M1596,-84.83C1596,-101.2 1596,-122.8 1596,-122.8 1596,-122.8 2041.05,-122.8 2041.05,-122.8"/>
<polygon fill="black" stroke="black" points="2041.05,-126.3 2051.05,-122.8 2041.05,-119.3 2041.05,-126.3"/>
</g>
<!-- MyCasesComponent -->
<g id="node14" class="node">
<title>MyCasesComponent</title>
<polygon fill="#ffffb3" stroke="black" points="1516.93,-84.8 1383.07,-84.8 1383.07,-48.8 1516.93,-48.8 1516.93,-84.8"/>
<text text-anchor="middle" x="1450" y="-62.6" font-family="Times,serif" font-size="14.00">MyCasesComponent</text>
</g>
<!-- MyCasesComponent&#45;&gt;AppModule -->
<g id="edge14" class="edge">
<title>MyCasesComponent&#45;&gt;AppModule</title>
<path fill="none" stroke="black" d="M1450,-84.82C1450,-102.17 1450,-125.8 1450,-125.8 1450,-125.8 2041.31,-125.8 2041.31,-125.8"/>
<polygon fill="black" stroke="black" points="2041.31,-129.3 2051.31,-125.8 2041.31,-122.3 2041.31,-129.3"/>
</g>
<!-- NewCaseModalComponent -->
<g id="node15" class="node">
<title>NewCaseModalComponent</title>
<polygon fill="#ffffb3" stroke="black" points="1365.52,-84.8 1194.48,-84.8 1194.48,-48.8 1365.52,-48.8 1365.52,-84.8"/>
<text text-anchor="middle" x="1280" y="-62.6" font-family="Times,serif" font-size="14.00">NewCaseModalComponent</text>
</g>
<!-- NewCaseModalComponent&#45;&gt;AppModule -->
<g id="edge15" class="edge">
<title>NewCaseModalComponent&#45;&gt;AppModule</title>
<path fill="none" stroke="black" d="M1280,-85.1C1280,-103.07 1280,-127.8 1280,-127.8 1280,-127.8 2041.28,-127.8 2041.28,-127.8"/>
<polygon fill="black" stroke="black" points="2041.28,-131.3 2051.28,-127.8 2041.28,-124.3 2041.28,-131.3"/>
</g>
<!-- NewVehicleModalComponent -->
<g id="node16" class="node">
<title>NewVehicleModalComponent</title>
<polygon fill="#ffffb3" stroke="black" points="1175.84,-84.8 988.16,-84.8 988.16,-48.8 1175.84,-48.8 1175.84,-84.8"/>
<text text-anchor="middle" x="1082" y="-62.6" font-family="Times,serif" font-size="14.00">NewVehicleModalComponent</text>
</g>
<!-- NewVehicleModalComponent&#45;&gt;AppModule -->
<g id="edge16" class="edge">
<title>NewVehicleModalComponent&#45;&gt;AppModule</title>
<path fill="none" stroke="black" d="M1082,-84.97C1082,-103.89 1082,-130.8 1082,-130.8 1082,-130.8 2041.16,-130.8 2041.16,-130.8"/>
<polygon fill="black" stroke="black" points="2041.16,-134.3 2051.16,-130.8 2041.16,-127.3 2041.16,-134.3"/>
</g>
<!-- PrivacyPolicyComponent -->
<g id="node17" class="node">
<title>PrivacyPolicyComponent</title>
<polygon fill="#ffffb3" stroke="black" points="969.87,-84.8 810.13,-84.8 810.13,-48.8 969.87,-48.8 969.87,-84.8"/>
<text text-anchor="middle" x="890" y="-62.6" font-family="Times,serif" font-size="14.00">PrivacyPolicyComponent</text>
</g>
<!-- PrivacyPolicyComponent&#45;&gt;AppModule -->
<g id="edge17" class="edge">
<title>PrivacyPolicyComponent&#45;&gt;AppModule</title>
<path fill="none" stroke="black" d="M890,-85.11C890,-104.95 890,-133.8 890,-133.8 890,-133.8 2041.24,-133.8 2041.24,-133.8"/>
<polygon fill="black" stroke="black" points="2041.24,-137.3 2051.24,-133.8 2041.24,-130.3 2041.24,-137.3"/>
</g>
<!-- RatingModalComponent -->
<g id="node18" class="node">
<title>RatingModalComponent</title>
<polygon fill="#ffffb3" stroke="black" points="791.71,-84.8 636.29,-84.8 636.29,-48.8 791.71,-48.8 791.71,-84.8"/>
<text text-anchor="middle" x="714" y="-62.6" font-family="Times,serif" font-size="14.00">RatingModalComponent</text>
</g>
<!-- RatingModalComponent&#45;&gt;AppModule -->
<g id="edge18" class="edge">
<title>RatingModalComponent&#45;&gt;AppModule</title>
<path fill="none" stroke="black" d="M714,-84.83C714,-105.57 714,-136.8 714,-136.8 714,-136.8 2040.98,-136.8 2040.98,-136.8"/>
<polygon fill="black" stroke="black" points="2040.98,-140.3 2050.98,-136.8 2040.98,-133.3 2040.98,-140.3"/>
</g>
<!-- SignInComponent -->
<g id="node19" class="node">
<title>SignInComponent</title>
<polygon fill="#ffffb3" stroke="black" points="618.17,-84.8 499.83,-84.8 499.83,-48.8 618.17,-48.8 618.17,-84.8"/>
<text text-anchor="middle" x="559" y="-62.6" font-family="Times,serif" font-size="14.00">SignInComponent</text>
</g>
<!-- SignInComponent&#45;&gt;AppModule -->
<g id="edge19" class="edge">
<title>SignInComponent&#45;&gt;AppModule</title>
<path fill="none" stroke="black" d="M559,-84.97C559,-106.3 559,-138.8 559,-138.8 559,-138.8 2041.17,-138.8 2041.17,-138.8"/>
<polygon fill="black" stroke="black" points="2041.17,-142.3 2051.17,-138.8 2041.17,-135.3 2041.17,-142.3"/>
</g>
<!-- SignUpComponent -->
<g id="node20" class="node">
<title>SignUpComponent</title>
<polygon fill="#ffffb3" stroke="black" points="482.11,-84.8 357.89,-84.8 357.89,-48.8 482.11,-48.8 482.11,-84.8"/>
<text text-anchor="middle" x="420" y="-62.6" font-family="Times,serif" font-size="14.00">SignUpComponent</text>
</g>
<!-- SignUpComponent&#45;&gt;AppModule -->
<g id="edge20" class="edge">
<title>SignUpComponent&#45;&gt;AppModule</title>
<path fill="none" stroke="black" d="M420,-84.96C420,-107.15 420,-141.8 420,-141.8 420,-141.8 2041.23,-141.8 2041.23,-141.8"/>
<polygon fill="black" stroke="black" points="2041.23,-145.3 2051.23,-141.8 2041.23,-138.3 2041.23,-145.3"/>
</g>
<!-- UserProfileComponent -->
<g id="node21" class="node">
<title>UserProfileComponent</title>
<polygon fill="#ffffb3" stroke="black" points="339.86,-84.8 194.14,-84.8 194.14,-48.8 339.86,-48.8 339.86,-84.8"/>
<text text-anchor="middle" x="267" y="-62.6" font-family="Times,serif" font-size="14.00">UserProfileComponent</text>
</g>
<!-- UserProfileComponent&#45;&gt;AppModule -->
<g id="edge21" class="edge">
<title>UserProfileComponent&#45;&gt;AppModule</title>
<path fill="none" stroke="black" d="M267,-84.89C267,-107.93 267,-144.8 267,-144.8 267,-144.8 2040.99,-144.8 2040.99,-144.8"/>
<polygon fill="black" stroke="black" points="2040.99,-148.3 2050.99,-144.8 2040.99,-141.3 2040.99,-148.3"/>
</g>
<!-- VerifyEmailComponent -->
<g id="node22" class="node">
<title>VerifyEmailComponent</title>
<polygon fill="#ffffb3" stroke="black" points="175.8,-84.8 24.2,-84.8 24.2,-48.8 175.8,-48.8 175.8,-84.8"/>
<text text-anchor="middle" x="100" y="-62.6" font-family="Times,serif" font-size="14.00">VerifyEmailComponent</text>
</g>
<!-- VerifyEmailComponent&#45;&gt;AppModule -->
<g id="edge22" class="edge">
<title>VerifyEmailComponent&#45;&gt;AppModule</title>
<path fill="none" stroke="black" d="M100,-85.18C100,-109.08 100,-147.8 100,-147.8 100,-147.8 2040.91,-147.8 2040.91,-147.8"/>
<polygon fill="black" stroke="black" points="2040.91,-151.3 2050.91,-147.8 2040.91,-144.3 2040.91,-151.3"/>
</g>
<!-- AppComponent  -->
<g id="node25" class="node">
<title>AppComponent </title>
<polygon fill="#80b1d3" stroke="black" points="2147.44,-214.8 2038.56,-214.8 2038.56,-178.8 2147.44,-178.8 2147.44,-214.8"/>
<text text-anchor="middle" x="2093" y="-192.6" font-family="Times,serif" font-size="14.00">AppComponent </text>
</g>
<!-- AppModule&#45;&gt;AppComponent  -->
<g id="edge24" class="edge">
<title>AppModule&#45;&gt;AppComponent </title>
<path fill="none" stroke="black" stroke-dasharray="1,5" d="M2093,-149.91C2093,-149.91 2093,-168.79 2093,-168.79"/>
<polygon fill="black" stroke="black" points="2089.5,-168.79 2093,-178.79 2096.5,-168.79 2089.5,-168.79"/>
</g>
<!-- AppRoutingModule -->
<g id="node24" class="node">
<title>AppRoutingModule</title>
<polygon fill="#8dd3c7" stroke="black" points="3840.27,-84.8 3837.27,-88.8 3816.27,-88.8 3813.27,-84.8 3711.73,-84.8 3711.73,-48.8 3840.27,-48.8 3840.27,-84.8"/>
<text text-anchor="middle" x="3776" y="-62.6" font-family="Times,serif" font-size="14.00">AppRoutingModule</text>
</g>
<!-- AppRoutingModule&#45;&gt;AppModule -->
<g id="edge23" class="edge">
<title>AppRoutingModule&#45;&gt;AppModule</title>
<path fill="none" stroke="black" d="M3776,-84.96C3776,-107.15 3776,-141.8 3776,-141.8 3776,-141.8 2145.02,-141.8 2145.02,-141.8"/>
<polygon fill="black" stroke="black" points="2145.02,-138.3 2135.02,-141.8 2145.02,-145.3 2145.02,-138.3"/>
</g>
<!-- AuthService -->
<g id="node26" class="node">
<title>AuthService</title>
<ellipse fill="#fdb462" stroke="black" cx="4059" cy="-66.8" rx="59.11" ry="18"/>
<text text-anchor="middle" x="4059" y="-62.6" font-family="Times,serif" font-size="14.00">AuthService</text>
</g>
<!-- AuthService&#45;&gt;AppModule -->
<g id="edge25" class="edge">
<title>AuthService&#45;&gt;AppModule</title>
<path fill="none" stroke="black" d="M4059,-85.18C4059,-109.08 4059,-147.8 4059,-147.8 4059,-147.8 2144.97,-147.8 2144.97,-147.8"/>
<polygon fill="black" stroke="black" points="2144.97,-144.3 2134.97,-147.8 2144.97,-151.3 2144.97,-144.3"/>
</g>
<!-- CaseService -->
<g id="node27" class="node">
<title>CaseService</title>
<ellipse fill="#fdb462" stroke="black" cx="3923" cy="-66.8" rx="58.52" ry="18"/>
<text text-anchor="middle" x="3923" y="-62.6" font-family="Times,serif" font-size="14.00">CaseService</text>
</g>
<!-- CaseService&#45;&gt;AppModule -->
<g id="edge26" class="edge">
<title>CaseService&#45;&gt;AppModule</title>
<path fill="none" stroke="black" d="M3923,-84.89C3923,-107.93 3923,-144.8 3923,-144.8 3923,-144.8 2144.66,-144.8 2144.66,-144.8"/>
<polygon fill="black" stroke="black" points="2144.66,-141.3 2134.66,-144.8 2144.66,-148.3 2144.66,-141.3"/>
</g>
</g>
</svg>
